<mxfile host="65bd71144e">
    <diagram name="Seite-1" id="cQDGv568icX2jK9eyaG7">
        <mxGraphModel dx="2651" dy="1463" grid="1" gridSize="10" guides="1" tooltips="1" connect="1" arrows="1" fold="1" page="1" pageScale="1" pageWidth="827" pageHeight="1169" math="0" shadow="0">
            <root>
                <mxCell id="0"/>
                <mxCell id="1" parent="0"/>
                <mxCell id="3_yDG6Tf8CbokMxIS_hq-15" value="" style="rounded=1;whiteSpace=wrap;html=1;" parent="1" vertex="1">
                    <mxGeometry x="240" y="445" width="300" height="140" as="geometry"/>
                </mxCell>
                <mxCell id="p9tXRTTUSLaMBlbqjOts-1" value="Calculation" style="rounded=1;whiteSpace=wrap;html=1;" parent="1" vertex="1">
                    <mxGeometry x="-50" y="485" width="120" height="60" as="geometry"/>
                </mxCell>
                <mxCell id="p9tXRTTUSLaMBlbqjOts-2" value="ChatGPT analyse the News on Internet (The New York Times...) and suggest helping making buy/sell algorithmen" style="rounded=1;whiteSpace=wrap;html=1;" parent="1" vertex="1">
                    <mxGeometry x="380" y="470" width="150" height="90" as="geometry"/>
                </mxCell>
                <mxCell id="3_yDG6Tf8CbokMxIS_hq-11" style="edgeStyle=orthogonalEdgeStyle;rounded=0;orthogonalLoop=1;jettySize=auto;html=1;entryX=1.002;entryY=0.223;entryDx=0;entryDy=0;entryPerimeter=0;" parent="1" source="p9tXRTTUSLaMBlbqjOts-3" target="3_yDG6Tf8CbokMxIS_hq-15" edge="1">
                    <mxGeometry relative="1" as="geometry">
                        <mxPoint x="570" y="470" as="targetPoint"/>
                    </mxGeometry>
                </mxCell>
                <mxCell id="p9tXRTTUSLaMBlbqjOts-3" value="Command" style="rounded=1;whiteSpace=wrap;html=1;" parent="1" vertex="1">
                    <mxGeometry x="640" y="490" width="120" height="60" as="geometry"/>
                </mxCell>
                <mxCell id="p9tXRTTUSLaMBlbqjOts-14" style="edgeStyle=orthogonalEdgeStyle;rounded=0;orthogonalLoop=1;jettySize=auto;html=1;entryX=0.5;entryY=1;entryDx=0;entryDy=0;exitX=0.466;exitY=-0.001;exitDx=0;exitDy=0;exitPerimeter=0;" parent="1" source="3_yDG6Tf8CbokMxIS_hq-15" target="p9tXRTTUSLaMBlbqjOts-7" edge="1">
                    <mxGeometry relative="1" as="geometry">
                        <mxPoint x="410" y="430" as="sourcePoint"/>
                        <Array as="points">
                            <mxPoint x="380" y="360"/>
                            <mxPoint x="700" y="360"/>
                        </Array>
                    </mxGeometry>
                </mxCell>
                <mxCell id="p9tXRTTUSLaMBlbqjOts-15" style="edgeStyle=orthogonalEdgeStyle;rounded=0;orthogonalLoop=1;jettySize=auto;html=1;entryX=0.5;entryY=1;entryDx=0;entryDy=0;exitX=0.466;exitY=-0.007;exitDx=0;exitDy=0;exitPerimeter=0;" parent="1" source="3_yDG6Tf8CbokMxIS_hq-15" target="p9tXRTTUSLaMBlbqjOts-8" edge="1">
                    <mxGeometry relative="1" as="geometry">
                        <mxPoint x="420" y="450" as="sourcePoint"/>
                        <Array as="points">
                            <mxPoint x="380" y="360"/>
                            <mxPoint x="10" y="360"/>
                        </Array>
                    </mxGeometry>
                </mxCell>
                <mxCell id="p9tXRTTUSLaMBlbqjOts-19" style="edgeStyle=orthogonalEdgeStyle;rounded=0;orthogonalLoop=1;jettySize=auto;html=1;entryX=0.5;entryY=1;entryDx=0;entryDy=0;" parent="1" source="p9tXRTTUSLaMBlbqjOts-5" target="p9tXRTTUSLaMBlbqjOts-1" edge="1">
                    <mxGeometry relative="1" as="geometry"/>
                </mxCell>
                <mxCell id="p9tXRTTUSLaMBlbqjOts-5" value="Market data API" style="rhombus;whiteSpace=wrap;html=1;" parent="1" vertex="1">
                    <mxGeometry x="-45" y="625" width="110" height="120" as="geometry"/>
                </mxCell>
                <mxCell id="p9tXRTTUSLaMBlbqjOts-6" value="Web APP or GUI" style="rounded=1;whiteSpace=wrap;html=1;" parent="1" vertex="1">
                    <mxGeometry x="320" y="250" width="120" height="60" as="geometry"/>
                </mxCell>
                <mxCell id="p9tXRTTUSLaMBlbqjOts-7" value="Rest API" style="shape=hexagon;perimeter=hexagonPerimeter2;whiteSpace=wrap;html=1;fixedSize=1;" parent="1" vertex="1">
                    <mxGeometry x="640" y="240" width="120" height="80" as="geometry"/>
                </mxCell>
                <mxCell id="p9tXRTTUSLaMBlbqjOts-8" value="Messenger API" style="shape=hexagon;perimeter=hexagonPerimeter2;whiteSpace=wrap;html=1;fixedSize=1;" parent="1" vertex="1">
                    <mxGeometry x="-50" y="240" width="120" height="80" as="geometry"/>
                </mxCell>
                <mxCell id="p9tXRTTUSLaMBlbqjOts-11" value="&lt;b&gt;API&lt;/b&gt;&lt;br&gt;Enable live trading Bot to&lt;br style=&quot;border-color: var(--border-color); font-size: 11px;&quot;&gt;&lt;span style=&quot;font-size: 11px; background-color: rgb(255, 255, 255);&quot;&gt;access latest status, orders&lt;/span&gt;&lt;br style=&quot;border-color: var(--border-color); font-size: 11px;&quot;&gt;&lt;span style=&quot;font-size: 11px; background-color: rgb(255, 255, 255);&quot;&gt;and positions from paper trading bot&lt;/span&gt;&lt;br style=&quot;border-color: var(--border-color); font-size: 11px;&quot;&gt;&lt;br style=&quot;border-color: var(--border-color); font-size: 11px;&quot;&gt;&lt;span style=&quot;font-size: 11px; background-color: rgb(255, 255, 255);&quot;&gt;Technology:&lt;/span&gt;" style="text;html=1;align=center;verticalAlign=middle;resizable=0;points=[];autosize=1;strokeColor=none;fillColor=none;" parent="1" vertex="1">
                    <mxGeometry x="600" y="123" width="200" height="100" as="geometry"/>
                </mxCell>
                <mxCell id="p9tXRTTUSLaMBlbqjOts-12" value="&lt;b&gt;Fron-end App&lt;/b&gt;&lt;br&gt;Web Application giving access to &lt;br&gt;see status of the bot across &lt;br&gt;all the various tables&lt;br&gt;Technology: self host or exe.&amp;nbsp;" style="text;html=1;align=center;verticalAlign=middle;resizable=0;points=[];autosize=1;strokeColor=none;fillColor=none;" parent="1" vertex="1">
                    <mxGeometry x="280" y="128" width="200" height="90" as="geometry"/>
                </mxCell>
                <mxCell id="3_yDG6Tf8CbokMxIS_hq-12" style="edgeStyle=orthogonalEdgeStyle;rounded=0;orthogonalLoop=1;jettySize=auto;html=1;" parent="1" source="p9tXRTTUSLaMBlbqjOts-16" edge="1">
                    <mxGeometry relative="1" as="geometry">
                        <mxPoint x="420" y="590" as="targetPoint"/>
                    </mxGeometry>
                </mxCell>
                <mxCell id="p9tXRTTUSLaMBlbqjOts-16" value="Data base" style="shape=cylinder3;whiteSpace=wrap;html=1;boundedLbl=1;backgroundOutline=1;size=15;" parent="1" vertex="1">
                    <mxGeometry x="335" y="650" width="90" height="120" as="geometry"/>
                </mxCell>
                <mxCell id="p9tXRTTUSLaMBlbqjOts-20" value="&lt;div style=&quot;text-align: left;&quot;&gt;&lt;span style=&quot;background-color: initial;&quot;&gt;Calculate of indicators&lt;/span&gt;&lt;/div&gt;&lt;div style=&quot;text-align: left;&quot;&gt;&lt;span style=&quot;background-color: initial;&quot;&gt;and triggers on&lt;/span&gt;&lt;/div&gt;&lt;div style=&quot;text-align: left;&quot;&gt;&lt;span style=&quot;background-color: initial;&quot;&gt;candle data&lt;/span&gt;&lt;/div&gt;&lt;div style=&quot;text-align: left;&quot;&gt;&lt;span style=&quot;background-color: initial;&quot;&gt;Technology&lt;/span&gt;&lt;/div&gt;" style="text;html=1;align=center;verticalAlign=middle;resizable=0;points=[];autosize=1;strokeColor=none;fillColor=none;" parent="1" vertex="1">
                    <mxGeometry x="-195" y="480" width="140" height="70" as="geometry"/>
                </mxCell>
                <mxCell id="3_yDG6Tf8CbokMxIS_hq-3" style="edgeStyle=orthogonalEdgeStyle;rounded=0;orthogonalLoop=1;jettySize=auto;html=1;entryX=0.5;entryY=1;entryDx=0;entryDy=0;exitX=0.465;exitY=0.003;exitDx=0;exitDy=0;exitPerimeter=0;" parent="1" source="3_yDG6Tf8CbokMxIS_hq-15" target="p9tXRTTUSLaMBlbqjOts-6" edge="1">
                    <mxGeometry relative="1" as="geometry">
                        <mxPoint x="420" y="450" as="sourcePoint"/>
                        <Array as="points">
                            <mxPoint x="379" y="444"/>
                            <mxPoint x="380" y="444"/>
                        </Array>
                    </mxGeometry>
                </mxCell>
                <mxCell id="3_yDG6Tf8CbokMxIS_hq-2" value="Trading algorithm&lt;br&gt;and&amp;nbsp;&lt;br&gt;order management" style="rounded=1;whiteSpace=wrap;html=1;" parent="1" vertex="1">
                    <mxGeometry x="250" y="480" width="120" height="60" as="geometry"/>
                </mxCell>
                <mxCell id="3_yDG6Tf8CbokMxIS_hq-13" style="edgeStyle=orthogonalEdgeStyle;rounded=0;orthogonalLoop=1;jettySize=auto;html=1;" parent="1" source="3_yDG6Tf8CbokMxIS_hq-5" target="3_yDG6Tf8CbokMxIS_hq-14" edge="1">
                    <mxGeometry relative="1" as="geometry">
                        <mxPoint x="1025" y="370" as="targetPoint"/>
                    </mxGeometry>
                </mxCell>
                <mxCell id="3_yDG6Tf8CbokMxIS_hq-5" value="&lt;font style=&quot;font-size: 12px;&quot;&gt;What is a REST API? An API, or application programming interface, is a set of rules that define how applications or devices can connect to and communicate with each other. A REST API is&amp;nbsp;&lt;span style=&quot;font-family: &amp;quot;Google Sans&amp;quot;, arial, sans-serif; text-align: left;&quot;&gt;&lt;u&gt;an API that conforms to the design principles of the REST, or representational state transfer architectural style&lt;/u&gt;&lt;/span&gt;&lt;span style=&quot;color: rgb(32, 33, 36); font-family: &amp;quot;Google Sans&amp;quot;, arial, sans-serif; text-align: left;&quot;&gt;.&lt;/span&gt;&lt;/font&gt;" style="text;html=1;strokeColor=none;fillColor=none;align=center;verticalAlign=middle;whiteSpace=wrap;rounded=0;" parent="1" vertex="1">
                    <mxGeometry x="840" y="240" width="370" height="80" as="geometry"/>
                </mxCell>
                <mxCell id="3_yDG6Tf8CbokMxIS_hq-9" value="&lt;b&gt;Message&lt;/b&gt;&lt;br style=&quot;border-color: var(--border-color);&quot;&gt;&lt;span style=&quot;&quot;&gt;send message to notify user when ever a new order is placed&lt;/span&gt;" style="text;html=1;strokeColor=none;fillColor=none;align=center;verticalAlign=middle;whiteSpace=wrap;rounded=0;" parent="1" vertex="1">
                    <mxGeometry x="-85" y="143" width="190" height="60" as="geometry"/>
                </mxCell>
                <mxCell id="3_yDG6Tf8CbokMxIS_hq-10" style="edgeStyle=orthogonalEdgeStyle;rounded=0;orthogonalLoop=1;jettySize=auto;html=1;entryX=0;entryY=0.5;entryDx=0;entryDy=0;entryPerimeter=0;" parent="1" source="p9tXRTTUSLaMBlbqjOts-1" target="p9tXRTTUSLaMBlbqjOts-16" edge="1">
                    <mxGeometry relative="1" as="geometry">
                        <Array as="points">
                            <mxPoint x="180" y="515"/>
                            <mxPoint x="180" y="710"/>
                        </Array>
                    </mxGeometry>
                </mxCell>
                <mxCell id="3_yDG6Tf8CbokMxIS_hq-14" value="Idea here for embede System project:&lt;br&gt;The programm send data to esp32 and show the chart diagram on the screen (IoT)" style="text;html=1;strokeColor=none;fillColor=none;align=center;verticalAlign=middle;whiteSpace=wrap;rounded=0;" parent="1" vertex="1">
                    <mxGeometry x="995" y="355" width="235" height="65" as="geometry"/>
                </mxCell>
                <mxCell id="3" value="&lt;h3 style=&quot;box-sizing: border-box; margin-top: 0px; margin-bottom: 10px; font-weight: 500; line-height: 1.2; font-size: 1.2em; font-family: DaxWeb, sans-serif; padding-left: 20px; padding-top: 10px; padding-bottom: 10px; text-align: start;&quot;&gt;&lt;br&gt;&lt;/h3&gt;" style="text;html=1;align=center;verticalAlign=middle;resizable=0;points=[];autosize=1;strokeColor=none;fillColor=none;fontColor=#F0F0F0;" vertex="1" parent="1">
                    <mxGeometry x="1470" y="575" width="40" height="60" as="geometry"/>
                </mxCell>
                <mxCell id="7" style="edgeStyle=none;html=1;entryX=1;entryY=1;entryDx=0;entryDy=0;fontSize=12;fontColor=#F0F0F0;" edge="1" parent="1" source="5" target="3_yDG6Tf8CbokMxIS_hq-15">
                    <mxGeometry relative="1" as="geometry">
                        <Array as="points">
                            <mxPoint x="540" y="720"/>
                        </Array>
                    </mxGeometry>
                </mxCell>
                <mxCell id="5" value="&lt;h3 style=&quot;box-sizing: border-box; margin-top: 0px; margin-bottom: 10px; font-weight: 500; line-height: 1.2; font-family: DaxWeb, sans-serif; padding-left: 20px; padding-top: 10px; padding-bottom: 10px; text-align: start;&quot;&gt;&lt;span style=&quot;background-color: initial; font-size: 14.4px;&quot;&gt;What is the best Algorithm for trading?&lt;/span&gt;&lt;/h3&gt;&lt;h3 style=&quot;box-sizing: border-box; margin-top: 0px; margin-bottom: 10px; font-weight: 500; line-height: 1.2; font-family: DaxWeb, sans-serif; padding-left: 20px; padding-top: 10px; padding-bottom: 10px; text-align: start;&quot;&gt;&lt;span style=&quot;font-size: 12px; background-color: initial;&quot;&gt;There are a lot of algorthms like Decision Tree, Random Forest, K-Nearest Neighbour (KNN), Regressionsanalysen, Naive Bayes and so on.&amp;nbsp;&lt;/span&gt;&lt;font style=&quot;font-size: 12px;&quot;&gt;They vary in effectiveness depending on trading strategy and market conditions.&lt;/font&gt;&lt;/h3&gt;" style="text;strokeColor=none;align=center;fillColor=none;html=1;verticalAlign=middle;whiteSpace=wrap;rounded=0;labelBackgroundColor=none;fontSize=12;fontColor=#F0F0F0;" vertex="1" parent="1">
                    <mxGeometry x="827" y="650" width="430" height="140" as="geometry"/>
                </mxCell>
            </root>
        </mxGraphModel>
    </diagram>
</mxfile>